<svg width="38" height="46" viewBox="0 0 38 46" fill="none" xmlns="http://www.w3.org/2000/svg">
<g id="&#240;&#159;&#166;&#134; icon &#34;apple&#34;">
<g id="Group">
<path id="Vector" fill-rule="evenodd" clip-rule="evenodd" d="M35.1396 38.9558C36.479 36.9127 36.9784 35.8684 38 33.5756C30.4631 30.7152 29.2599 19.9774 36.706 15.8684C34.4359 13.008 31.235 11.3508 28.2157 11.3508C26.0363 11.3508 24.538 11.9184 23.1986 12.4405C22.0636 12.8719 21.042 13.2578 19.7707 13.2578C18.4086 13.2578 17.2055 12.8264 15.9342 12.3724C14.5494 11.873 13.0964 11.3508 11.2803 11.3508C7.89776 11.3508 4.28825 13.4167 1.9954 16.9581C-1.22821 21.9524 -0.660673 31.3054 4.53796 39.2963C6.39948 42.1567 8.89665 45.3576 12.143 45.403C13.505 45.4257 14.3904 45.0171 15.3666 44.5858C16.479 44.0864 17.6822 43.5415 19.7934 43.5415C21.9047 43.5188 23.0851 44.0864 24.1975 44.5858C25.151 45.0171 26.0136 45.4257 27.353 45.403C30.6447 45.3576 33.2781 41.8162 35.1396 38.9558Z" fill="white"/>
<path id="Vector_2" fill-rule="evenodd" clip-rule="evenodd" d="M27.7396 0C28.1028 2.49716 27.0813 4.97164 25.7419 6.69696C24.3117 8.55848 21.8145 10.0113 19.4082 9.92054C18.9768 7.51419 20.0892 5.0397 21.4513 3.3825C22.9723 1.56638 25.5376 0.15891 27.7396 0Z" fill="white"/>
</g>
</g>
</svg>
