<svg width="48" height="38" viewBox="0 0 48 38" fill="none" xmlns="http://www.w3.org/2000/svg">
<g id="&#240;&#159;&#166;&#134; icon &#34;discord&#34;">
<path id="Vector" d="M40.5773 3.7126C37.4751 2.27497 34.171 1.21567 30.6905 0.610352C30.2617 1.367 29.7573 2.40108 29.4294 3.23339C25.7471 2.67852 22.0899 2.67852 18.4832 3.23339C18.1301 2.40108 17.6257 1.367 17.197 0.610352C13.7164 1.21567 10.4124 2.27497 7.31011 3.7126C1.05517 13.1455 -0.634678 22.3513 0.197633 31.4059C4.35919 34.5081 8.36941 36.3745 12.3292 37.6104C13.3128 36.2736 14.1704 34.836 14.927 33.3479C13.4894 32.8183 12.1274 32.1373 10.8411 31.3554C11.1942 31.1032 11.5221 30.8258 11.85 30.5735C19.7443 34.2559 28.2944 34.2559 36.0879 30.5735C36.4158 30.851 36.7436 31.1032 37.0967 31.3554C35.8104 32.1373 34.4233 32.793 33.0109 33.3479C33.7675 34.836 34.625 36.2736 35.6087 37.6104C39.5685 36.3745 43.6039 34.5081 47.7402 31.4059C48.7239 20.8885 46.0504 11.7835 40.6278 3.7126H40.5773ZM15.9863 25.8571C13.6155 25.8571 11.6734 23.6628 11.6734 20.9641C11.6734 18.2654 13.5651 16.0712 15.9863 16.0712C18.4076 16.0712 20.3244 18.2654 20.2992 20.9641C20.2992 23.6376 18.4076 25.8571 15.9863 25.8571ZM31.9011 25.8571C29.5303 25.8571 27.5882 23.6628 27.5882 20.9641C27.5882 18.2654 29.4798 16.0712 31.9011 16.0712C34.3224 16.0712 36.2392 18.2654 36.214 20.9641C36.214 23.6376 34.3224 25.8571 31.9011 25.8571Z" fill="white"/>
</g>
</svg>
