<svg width="29" height="29" viewBox="0 0 29 29" fill="none" xmlns="http://www.w3.org/2000/svg">
<path d="M21.1331 5.36438H7.71755C3.46208 5.36438 0 8.82646 0 13.0819V21.1313C0 25.3868 3.46208 28.8489 7.71755 28.8489H21.1331C25.3886 28.8489 28.8506 25.3868 28.8506 21.1313V13.0819C28.8506 8.82646 25.3886 5.36438 21.1331 5.36438ZM18.0316 14.4524C18.0316 13.659 18.6808 13.0099 19.4742 13.0099C20.2676 13.0099 20.9167 13.659 20.9167 14.4524C20.9167 15.2458 20.2676 15.9092 19.4742 15.9092C18.6808 15.9092 18.0316 15.2746 18.0316 14.4813V14.4524ZM11.7278 20.2947C11.5114 20.511 11.2373 20.612 10.9632 20.612C10.6892 20.612 10.4151 20.511 10.1987 20.2947L8.71289 18.8087L7.28479 20.237C7.06841 20.4533 6.79432 20.5543 6.52024 20.5543C6.24616 20.5543 5.97208 20.4533 5.7557 20.237C5.33737 19.8186 5.33737 19.1261 5.7557 18.7079L7.18381 17.2798L5.79898 15.8949C5.38064 15.4766 5.38064 14.7842 5.79898 14.3659C6.21731 13.9475 6.90973 13.9475 7.32806 14.3659L8.71289 15.7507L10.141 14.3226C10.5593 13.9042 11.2517 13.9042 11.6701 14.3226C12.0884 14.7409 12.0884 15.4333 11.6701 15.8515L10.242 17.2798L11.7278 18.7656C12.1461 19.1839 12.1461 19.8763 11.7278 20.2947ZM16.6468 18.7511C15.8534 18.7511 15.1899 18.102 15.1899 17.3086C15.1899 16.5152 15.8246 15.8661 16.618 15.8661H16.6468C17.4402 15.8661 18.0893 16.5152 18.0893 17.3086C18.0893 18.102 17.4546 18.7511 16.6468 18.7511ZM19.4742 21.5929C18.6808 21.5929 18.0316 20.9582 18.0316 20.1648V20.1358C18.0316 19.3424 18.6808 18.6933 19.4742 18.6933C20.2676 18.6933 20.9167 19.3424 20.9167 20.1358C20.9167 20.9292 20.282 21.5929 19.4742 21.5929ZM22.3304 18.7511C21.537 18.7511 20.8734 18.102 20.8734 17.3086C20.8734 16.5152 21.5081 15.8661 22.3015 15.8661H22.3304C23.1238 15.8661 23.7729 16.5152 23.7729 17.3086C23.7729 18.102 23.1382 18.7511 22.3304 18.7511Z" fill="#292D32"/>
<path d="M16.7902 1.0242L16.7758 2.38018C16.7614 3.64961 15.7083 4.70265 14.4245 4.70265C14.2081 4.70265 14.0783 4.84691 14.0783 5.03444C14.0783 5.22196 14.2225 5.36622 14.41 5.36622H12.0876C12.0731 5.26524 12.0587 5.14984 12.0587 5.03444C12.0587 3.73616 13.1118 2.68311 14.3956 2.68311C14.612 2.68311 14.7563 2.53886 14.7563 2.35133L14.7707 0.995347C14.7851 0.447185 15.2323 0 15.7804 0H15.7949C16.3575 0 16.7902 0.46161 16.7902 1.0242Z" fill="#292D32"/>
</svg>
