<svg width="38" height="39" viewBox="0 0 38 39" fill="none" xmlns="http://www.w3.org/2000/svg">
<g id="&#240;&#159;&#166;&#134; icon &#34;google 1&#34;">
<path id="Vector" d="M37.8837 17.8013C37.7867 16.8125 36.9531 16.0758 35.9643 16.0758H21.3265C20.2602 16.0758 19.3877 16.9482 19.3877 18.0145V21.3298C19.3877 22.3962 20.2602 23.2686 21.3265 23.2686H30.0704C29.8571 25.0523 28.6939 27.7472 26.1153 29.5503C24.4673 30.6941 22.2765 31.489 19.3877 31.489C19.252 31.489 19.1357 31.489 19 31.4696C14.0561 31.3145 9.86838 27.9992 8.35613 23.4431C7.94899 22.2217 7.71634 20.9421 7.71634 19.6043C7.71634 18.2666 7.94899 16.9676 8.33674 15.7655C8.45307 15.4166 8.58879 15.0676 8.74389 14.7186C10.5276 10.7054 14.4245 7.87472 19 7.73901C19.1163 7.71962 19.252 7.71962 19.3877 7.71962C22.1602 7.71962 24.2347 8.63083 25.6888 9.63899C26.4449 10.1625 27.4531 10.0461 28.1122 9.40634L30.8071 6.76962C31.6602 5.93595 31.5826 4.52062 30.6133 3.82266C27.5306 1.55429 23.7694 0.216553 19.3877 0.216553C19.252 0.216553 19.1357 0.216572 19 0.23596C11.5745 0.371674 5.19592 4.67576 2.07449 10.8992C0.756124 13.536 0 16.4829 0 19.6043C0 22.7258 0.756124 25.6727 2.07449 28.3094H2.09388C5.21531 34.5329 11.5939 38.837 19 38.9727C19.1357 38.9921 19.252 38.9921 19.3877 38.9921C24.6224 38.9921 29.0235 37.2666 32.2224 34.3003C35.8867 30.9074 38 25.9441 38 20.0309C38 19.1972 37.9612 18.4798 37.8837 17.8013Z" fill="white"/>
</g>
</svg>
