<svg width="29" height="34" viewBox="0 0 29 34" fill="none" xmlns="http://www.w3.org/2000/svg">
<path d="M28.4443 10.8901C26.7377 3.38081 20.1873 0 14.4335 0C14.4335 0 14.4335 0 14.4172 0C8.67954 0 2.11297 3.36455 0.406312 10.8739C-1.49539 19.2609 3.64084 26.3638 8.28945 30.8336C10.0124 32.4915 12.2229 33.3205 14.4335 33.3205C16.644 33.3205 18.8545 32.4915 20.5612 30.8336C25.2098 26.3638 30.346 19.2771 28.4443 10.8901ZM14.4335 19.0333C11.6053 19.0333 9.31344 16.7415 9.31344 13.9133C9.31344 11.0852 11.6053 8.79335 14.4335 8.79335C17.2616 8.79335 19.5534 11.0852 19.5534 13.9133C19.5534 16.7415 17.2616 19.0333 14.4335 19.0333Z" fill="#292D32"/>
</svg>
