<svg width="29" height="30" viewBox="0 0 29 30" fill="none" xmlns="http://www.w3.org/2000/svg">
<path d="M24.2089 8.87846L10.4125 1.98028C1.14506 -2.66149 -2.65861 1.14218 1.98316 10.4096L3.38536 13.2141C3.78829 14.036 3.78829 14.9869 3.38536 15.8089L1.98316 18.5972C-2.65861 27.8646 1.12895 31.6683 10.4125 27.0265L24.2089 20.1284C30.3979 17.0338 30.3979 11.973 24.2089 8.87846ZM19.003 15.7122H10.2997C9.63886 15.7122 9.09087 15.1642 9.09087 14.5034C9.09087 13.8426 9.63886 13.2946 10.2997 13.2946H19.003C19.6638 13.2946 20.2118 13.8426 20.2118 14.5034C20.2118 15.1642 19.6638 15.7122 19.003 15.7122Z" fill="#292D32"/>
</svg>
